<?xml version="1.0" encoding="utf-8"?>
<svg viewBox="0 0 500 500" xmlns="http://www.w3.org/2000/svg">
  <path d="M 346.081 249.356 L 315.002 249.356 L 315.002 220.277 L 299.463 220.277 L 299.463 285.706 L 175.148 285.706 L 175.148 169.387 L 245.076 169.379 L 245.076 154.847 L 213.996 154.847 L 213.996 125.767 L 198.457 125.767 L 198.457 154.847 L 175.148 154.847 C 166.571 154.853 159.617 161.353 159.609 169.387 L 159.609 191.197 L 128.53 191.197 L 128.53 205.736 L 159.609 205.736 L 159.609 249.356 L 128.53 249.356 L 128.53 263.897 L 159.609 263.897 L 159.609 285.706 C 159.617 293.732 166.571 300.232 175.148 300.246 L 198.457 300.246 L 198.457 329.326 L 213.996 329.326 L 213.996 300.246 L 260.614 300.246 L 260.614 329.326 L 276.155 329.326 L 276.155 300.246 L 299.463 300.246 C 308.04 300.232 314.987 293.732 315.002 285.706 L 315.002 263.897 L 346.081 263.897 L 346.081 249.356 Z" style=""/>
  <path d="M 276.155 263.897 L 198.457 263.897 L 198.457 191.197 L 276.155 191.197 L 276.155 263.897 Z M 213.996 249.356 L 260.614 249.356 L 260.614 205.736 L 213.996 205.736 L 213.996 249.356 Z" style=""/>
  <path d="M 353.85 205.736 L 338.312 205.736 C 338.257 165.598 303.503 133.08 260.614 133.037 L 260.614 118.497 C 312.082 118.548 353.79 157.573 353.85 205.736 Z" style=""/>
  <path d="M 315.002 205.736 L 299.463 205.736 C 299.433 185.663 282.059 169.408 260.614 169.387 L 260.614 154.847 C 290.637 154.876 314.964 177.645 315.002 205.736 Z" style=""/>
  <rect id="_Transparent_Rectangle_" data-name="&lt;Transparent Rectangle&gt;" class="cls-1" width="208.673" height="206.332" style="fill: none;" x="136.981" y="114.659"/>
</svg>